<svg width="24" height="24" viewBox="0 0 24 24" fill="none" xmlns="http://www.w3.org/2000/svg">
<path d="M12.0176 13.0152C12.3691 13.0152 12.7295 12.8306 13.0986 12.4615L20.7451 4.89409C20.417 4.58355 19.8164 4.42827 18.9434 4.42827H4.79297C4.04883 4.42827 3.5332 4.57183 3.24609 4.85894L10.9365 12.4615C11.2998 12.8306 11.6602 13.0152 12.0176 13.0152ZM2.5166 18.1568L8.73047 12.0132L2.49902 5.86968C2.36426 6.12163 2.29688 6.54644 2.29688 7.14409V16.8472C2.29688 17.4683 2.37012 17.9048 2.5166 18.1568ZM5.05664 19.5718H19.207C19.9395 19.5718 20.4521 19.4312 20.7451 19.15L14.4082 12.8746L13.8281 13.4634C13.2363 14.0259 12.6328 14.3072 12.0176 14.3072C11.3965 14.3072 10.793 14.0259 10.207 13.4634L9.61816 12.8746L3.29883 19.1412C3.63281 19.4283 4.21875 19.5718 5.05664 19.5718ZM21.4922 18.148C21.6328 17.8902 21.7031 17.4566 21.7031 16.8472V7.14409C21.7031 6.5523 21.6387 6.13628 21.5098 5.89605L15.2959 12.0132L21.4922 18.148Z" fill="#FFC83E"/>
</svg>
