<svg width="24" height="24" viewBox="0 0 24 24" fill="none" xmlns="http://www.w3.org/2000/svg">
<path d="M16.8525 13.7977C17.9004 13.7977 18.75 14.704 18.75 15.822V16.6488C18.75 17.1649 18.5988 17.6681 18.3175 18.088C17.0131 20.0353 14.8832 21 11.9972 21C9.11069 21 6.98187 20.0349 5.68064 18.0866C5.40053 17.6672 5.25 17.1651 5.25 16.6501V15.822C5.25 14.704 6.09956 13.7977 7.14755 13.7977H16.8525ZM11.9972 2.99998C14.3272 2.99998 16.2161 5.01506 16.2161 7.50078C16.2161 9.98651 14.3272 12.0016 11.9972 12.0016C9.6672 12.0016 7.77834 9.98651 7.77834 7.50078C7.77834 5.01506 9.6672 2.99998 11.9972 2.99998Z" fill="#48D38A"/>
</svg>
