<svg width="24" height="24" viewBox="0 0 24 24" fill="none" xmlns="http://www.w3.org/2000/svg">
<path d="M11.7348 8.25854L5.3336 13.5307V19.2209C5.3336 19.3683 5.39212 19.5096 5.4963 19.6137C5.60048 19.7179 5.74178 19.7764 5.88911 19.7764L9.77978 19.7664C9.92663 19.7656 10.0672 19.7068 10.1708 19.6027C10.2744 19.4986 10.3325 19.3577 10.3325 19.2109V15.8878C10.3325 15.7405 10.391 15.5992 10.4952 15.495C10.5994 15.3909 10.7407 15.3323 10.888 15.3323H13.1101C13.2574 15.3323 13.3987 15.3909 13.5029 15.495C13.6071 15.5992 13.6656 15.7405 13.6656 15.8878V19.2084C13.6654 19.2815 13.6796 19.354 13.7074 19.4215C13.7352 19.4891 13.7761 19.5506 13.8277 19.6024C13.8793 19.6541 13.9406 19.6952 14.0081 19.7232C14.0756 19.7513 14.148 19.7657 14.2211 19.7657L18.1104 19.7764C18.2577 19.7764 18.399 19.7179 18.5032 19.6137C18.6074 19.5096 18.6659 19.3683 18.6659 19.2209V13.5269L12.266 8.25854C12.1908 8.19789 12.0971 8.16482 12.0004 8.16482C11.9038 8.16482 11.8101 8.19789 11.7348 8.25854ZM21.8462 11.842L18.9437 9.44942V4.6404C18.9437 4.5299 18.8998 4.42393 18.8216 4.3458C18.7435 4.26766 18.6375 4.22377 18.527 4.22377H16.5827C16.4722 4.22377 16.3663 4.26766 16.2881 4.3458C16.21 4.42393 16.1661 4.5299 16.1661 4.6404V7.1614L13.0577 4.60395C12.7593 4.35847 12.385 4.22426 11.9987 4.22426C11.6124 4.22426 11.2381 4.35847 10.9398 4.60395L2.1512 11.842C2.10901 11.8768 2.07411 11.9197 2.04848 11.968C2.02286 12.0164 2.00701 12.0693 2.00185 12.1238C1.9967 12.1783 2.00232 12.2333 2.01842 12.2856C2.03451 12.3379 2.06076 12.3866 2.09565 12.4287L2.981 13.505C3.0158 13.5473 3.0586 13.5824 3.10696 13.6081C3.15532 13.6339 3.20828 13.6498 3.26282 13.6551C3.31735 13.6604 3.37239 13.6548 3.42477 13.6388C3.47716 13.6227 3.52587 13.5965 3.56811 13.5616L11.7348 6.83503C11.8101 6.77439 11.9038 6.74131 12.0004 6.74131C12.0971 6.74131 12.1908 6.77439 12.266 6.83503L20.4331 13.5616C20.4753 13.5965 20.5239 13.6228 20.5762 13.6389C20.6286 13.655 20.6835 13.6606 20.738 13.6554C20.7925 13.6503 20.8455 13.6344 20.8938 13.6088C20.9422 13.5832 20.985 13.5483 21.0199 13.5061L21.9052 12.4298C21.9401 12.3873 21.9662 12.3385 21.9821 12.2859C21.998 12.2334 22.0034 12.1782 21.9979 12.1236C21.9924 12.069 21.9762 12.016 21.9502 11.9676C21.9241 11.9193 21.8888 11.8766 21.8462 11.842Z" fill="#1DCBEF"/>
</svg>
