<svg width="24" height="24" viewBox="0 0 24 24" fill="none" xmlns="http://www.w3.org/2000/svg">
<path d="M7.93774 16.0373C8.86828 16.9678 9.85051 17.8079 10.8844 18.5575C11.9184 19.3071 12.9523 19.9016 13.9862 20.341C15.0201 20.7804 15.9991 21.0001 16.9232 21.0001C17.55 21.0001 18.1348 20.887 18.6776 20.6608C19.2205 20.4347 19.7116 20.0793 20.151 19.5946C20.4095 19.3103 20.613 19.0033 20.7617 18.6738C20.9103 18.3507 20.9846 18.0243 20.9846 17.6948C20.9846 17.4492 20.9361 17.2166 20.8392 16.9969C20.7423 16.7707 20.5775 16.5768 20.3449 16.4153L17.3691 14.3022C17.1429 14.1471 16.9329 14.0308 16.739 13.9533C16.5452 13.8757 16.361 13.8369 16.1865 13.8369C15.9668 13.8369 15.7536 13.8983 15.5468 14.0211C15.34 14.1374 15.1268 14.3054 14.907 14.5251L14.2188 15.2037C14.1219 15.307 13.9991 15.3587 13.8505 15.3587C13.773 15.3587 13.6986 15.3458 13.6276 15.32C13.5629 15.2941 13.508 15.2715 13.4628 15.2521C13.1591 15.0906 12.7713 14.8127 12.2996 14.4185C11.8279 14.0179 11.3529 13.5785 10.8747 13.1003C10.403 12.6221 9.96682 12.1471 9.56618 11.6754C9.16553 11.2037 8.88766 10.8192 8.73257 10.5219C8.70673 10.4702 8.68088 10.4121 8.65503 10.3474C8.63564 10.2764 8.62595 10.2053 8.62595 10.1342C8.62595 9.99203 8.67441 9.87248 8.77135 9.77555L9.45955 9.06795C9.6728 8.84825 9.84081 8.635 9.96359 8.42821C10.0864 8.22143 10.1478 8.00818 10.1478 7.78847C10.1478 7.614 10.1058 7.42983 10.0217 7.23597C9.9442 7.04211 9.82466 6.83209 9.66311 6.60592L7.5791 3.66892C7.41109 3.43629 7.21076 3.26828 6.97813 3.16488C6.7455 3.05503 6.49994 3.0001 6.24146 3.0001C5.57587 3.0001 4.95228 3.2812 4.3707 3.8434C3.89897 4.29574 3.55325 4.79655 3.33354 5.34582C3.1203 5.88863 3.01367 6.47022 3.01367 7.09057C3.01367 8.0211 3.23015 9.0001 3.66311 10.0276C4.09606 11.0486 4.68411 12.0728 5.42724 13.1003C6.17038 14.1277 7.00721 15.1067 7.93774 16.0373Z" fill="#6DEAAB"/>
</svg>
